<svg xmlns="http://www.w3.org/2000/svg" fill='#854838' viewBox="0 0 32 32">
    <path d="M16 30C8.3 30 2 23.7 2 16S8.3 2 16 2s14 6.3 14 14-6.3 14-14 14zm0-27C8.8 3 3 8.8 3 16s5.8 13 13 13 13-5.8 13-13S23.2 3 16 3z" />
    <path d="M16 25c-1 0-1.9-.2-2.8-.5-.3-.1-.4-.4-.3-.6.1-.3.4-.4.6-.3 1.8.6 3.7.5 5.4-.1.3-.1.5 0 .6.3s0 .5-.3.6c-1 .4-2.1.6-3.2.6zM21 23.4c-.2 0-.3-.1-.4-.2-.2-.2-.1-.5.1-.7 2.1-1.5 3.3-4 3.3-6.5 0-1.9-.7-3.7-1.9-5.2-.2-.2-.2-.5.1-.7.2-.2.5-.2.7.1 1.4 1.6 2.1 3.7 2.1 5.8 0 2.9-1.4 5.6-3.7 7.3-.1 0-.2.1-.3.1zM18.9 8.5h-.2c-1.3-.5-2.7-.6-4.1-.4-.3 0-.5-.1-.6-.4 0-.3.1-.5.4-.6 1.6-.2 3.2-.1 4.7.4.3.1.4.4.3.6-.1.3-.3.4-.5.4zM11.5 23.7c-.1 0-.2 0-.3-.1C8.6 22 7 19.1 7 16c0-2.6 1.2-5.1 3.2-6.9.2-.1.5-.1.7.1.2.2.2.5-.1.7C9 11.4 8 13.6 8 16c0 2.8 1.4 5.3 3.8 6.8.2.1.3.5.2.7-.2.1-.3.2-.5.2zM12.5 13.5c-.3 0-.5-.2-.5-.5V7.5c0-.3.2-.5.5-.5s.5.2.5.5V13c0 .3-.2.5-.5.5z" />
    <path d="M12.5 25c-.8 0-1.5-.7-1.5-1.5v-8.8l-.9-.9c-.1-.1-.1-.2-.1-.4v-6c0-.2.2-.4.5-.4s.5.2.5.5v5.8l.9.9c.1.1.1.2.1.4v9c0 .3.2.5.5.5s.5-.2.5-.5v-9c0-.1.1-.3.1-.4l.9-.9V7.5c0-.3.2-.5.5-.5s.5.2.5.5v6c0 .1-.1.3-.1.4l-.9.8v8.8c0 .8-.7 1.5-1.5 1.5zM20 25c-.8 0-1.5-.7-1.5-1.5v-8.1c0-.4-.1-.7-.3-.9-.1-.1-.2-.3-.3-.4-.7-.9-.9-1.8-.8-2.9.2-1.2.5-2.2 1.1-3 .2-.3.6-.6.9-.8.6-.4 1.3-.4 1.9 0 .3.2.7.5.9.8.6.8 1 1.8 1.1 3 .1 1.1-.1 2-.8 2.9-.1.1-.2.3-.3.4-.2.3-.3.6-.3.9v8.1c-.1.8-.8 1.5-1.6 1.5zm0-17c-.1 0-.3 0-.4.1-.2.2-.5.4-.6.6-.5.7-.8 1.5-.9 2.5-.1.8.1 1.5.6 2.2.1.1.2.2.3.4.4.4.6 1 .6 1.6v8.1c0 .3.2.5.5.5s.5-.2.5-.5v-8.1c0-.6.2-1.2.6-1.6.1-.1.2-.2.3-.4.5-.7.7-1.4.6-2.2-.1-1-.4-1.9-.9-2.5l-.6-.6c-.3-.1-.5-.1-.6-.1z" />
</svg>