<svg width="26" height="26" viewBox="0 0 26 26" fill="none" xmlns="http://www.w3.org/2000/svg">
<rect width="26" height="26" rx="13" fill="white"/>
<path d="M17.4643 8C17.5937 8.00001 17.7188 8.04501 17.8164 8.1267C17.9139 8.20839 17.9774 8.32122 17.995 8.44435L18 8.51429V19.4859C18 19.6162 17.9484 19.7416 17.8557 19.8368C17.7631 19.932 17.6362 19.9899 17.5008 19.9988C17.3654 20.0077 17.2315 19.9669 17.1262 19.8847C17.0209 19.8024 16.9521 19.6849 16.9336 19.5558L16.9286 19.4859V16.0572H15.3214C15.192 16.0572 15.0669 16.0122 14.9693 15.9305C14.8718 15.8489 14.8083 15.736 14.7907 15.6129L14.7857 15.543V10.5715C14.7857 9.88947 15.0679 9.23541 15.5702 8.75316C16.0726 8.27092 16.7539 8 17.4643 8V8ZM13.1786 8C13.308 8.00001 13.4331 8.04501 13.5307 8.1267C13.6282 8.20839 13.6917 8.32122 13.7093 8.44435L13.7143 8.51429V11.2572C13.7143 12.5964 12.7143 13.7107 11.3929 13.9521V19.4859C11.3928 19.6162 11.3413 19.7416 11.2486 19.8368C11.1559 19.932 11.0291 19.9899 10.8937 19.9988C10.7582 20.0077 10.6244 19.9669 10.5191 19.8847C10.4138 19.8024 10.3449 19.6849 10.3264 19.5558L10.3214 19.4859V13.9521C9.69341 13.8368 9.12377 13.5227 8.70359 13.06C8.2834 12.5974 8.03693 12.0128 8.00357 11.3998L8 11.2572V8.51429C8.00004 8.38399 8.0516 8.25856 8.14427 8.16334C8.23693 8.06813 8.36378 8.01024 8.4992 8.00135C8.63462 7.99247 8.76849 8.03327 8.87379 8.1155C8.97908 8.19773 9.04793 8.31526 9.06643 8.44435L9.07143 8.51429V11.2572C9.07143 12.0252 9.59714 12.6746 10.3214 12.8933V8.51429C10.3215 8.38399 10.373 8.25856 10.4657 8.16334C10.5584 8.06813 10.6852 8.01024 10.8206 8.00135C10.956 7.99247 11.0899 8.03327 11.1952 8.1155C11.3005 8.19773 11.3694 8.31526 11.3879 8.44435L11.3929 8.51429V12.8926C11.7337 12.7895 12.0345 12.5906 12.2565 12.3217C12.4784 12.0528 12.6112 11.7262 12.6379 11.384L12.6429 11.2572V8.51429C12.6429 8.37789 12.6993 8.24708 12.7998 8.15063C12.9002 8.05418 13.0365 8 13.1786 8ZM16.9286 15.0287V9.11636C16.6349 9.21612 16.3778 9.39558 16.1884 9.63295C15.9989 9.87032 15.8854 10.1554 15.8614 10.4535L15.8571 10.5715V15.0287H16.9286V9.11636V15.0287Z" fill="#854838"/>
</svg>
